<svg xmlns="http://www.w3.org/2000/svg" xmlns:xlink="http://www.w3.org/1999/xlink" width="100" zoomAndPan="magnify" viewBox="0 0 75 74.999997" height="100" preserveAspectRatio="xMidYMid meet" version="1.0"><defs><clipPath id="0d48276dfd"><path d="M 29 31 L 66 31 L 66 59.0625 L 29 59.0625 Z M 29 31 " clip-rule="nonzero"/></clipPath><clipPath id="bccdd89066"><path d="M 33 16.3125 L 48 16.3125 L 48 27 L 33 27 Z M 33 16.3125 " clip-rule="nonzero"/></clipPath><clipPath id="1571a134ee"><path d="M 31 16.3125 L 51 16.3125 L 51 30 L 31 30 Z M 31 16.3125 " clip-rule="nonzero"/></clipPath></defs><path fill="#da6319" d="M 63.3125 52.683594 L 11.527344 52.683594 C 11.527344 38.378906 23.121094 26.785156 37.421875 26.785156 C 51.726562 26.785156 63.3125 38.378906 63.3125 52.683594 Z M 63.3125 52.683594 " fill-opacity="1" fill-rule="nonzero"/><path stroke-linecap="butt" transform="matrix(0.571092, 0, 0, 0.571092, 0.122054, 16.483826)" fill-opacity="1" fill="#ffffff" fill-rule="nonzero" stroke-linejoin="miter" d="M 56.147642 37.148845 C 56.147642 37.148845 46.646922 57.990237 39.300793 60.267947 C 31.947824 62.552498 28.15164 62.552498 28.15164 62.552498 L 26.879406 68.510112 C 26.879406 68.510112 52.761856 72.183177 58.760511 62.05318 C 58.760511 62.05318 60.326865 39.241876 56.147642 37.148845 Z M 56.147642 37.148845 " stroke="#000000" stroke-width="0.3" stroke-opacity="1" stroke-miterlimit="10"/><path stroke-linecap="round" transform="matrix(0.571092, 0, 0, 0.571092, 0.122054, 16.483826)" fill-opacity="1" fill="#ffffff" fill-rule="nonzero" stroke-linejoin="round" d="M 109.807216 39.871153 L 116.530907 36.321208 C 116.530907 36.321208 117.160184 30.431993 118.487139 30.110515 C 119.820933 29.789036 120.121892 33.256901 120.121892 33.256901 C 120.121892 33.256901 124.567873 30.219954 125.812748 29.836916 C 127.050783 29.460717 127.242302 30.582473 126.920823 31.15019 C 126.920823 31.15019 128.979655 30.042115 129.738891 30.548273 C 130.498128 31.061271 129.260093 32.422425 128.439297 32.887543 C 128.439297 32.887543 129.868851 32.408745 130.340809 33.017502 C 130.819607 33.61942 129.287453 35.432012 127.201262 36.410128 C 127.201262 36.410128 129.321653 36.382768 129.198534 37.080445 C 129.068574 37.778122 127.74162 40.151592 120.49125 41.800025 L 113.357161 45.787728 Z M 109.807216 39.871153 " stroke="#000000" stroke-width="0.3" stroke-opacity="1" stroke-miterlimit="10"/><path stroke-linecap="round" transform="matrix(0.571092, 0, 0, 0.571092, 0.122054, 16.483826)" fill-opacity="1" fill="#ffffff" fill-rule="nonzero" stroke-linejoin="round" d="M 118.870177 36.882086 C 118.870177 36.882086 120.060332 36.649527 120.340771 34.789055 " stroke="#000000" stroke-width="0.3" stroke-opacity="1" stroke-miterlimit="10"/><path stroke-linecap="round" transform="matrix(0.571092, 0, 0, 0.571092, 0.122054, 16.483826)" fill-opacity="1" fill="#ffffff" fill-rule="nonzero" stroke-linejoin="round" d="M 125.457069 34.789055 L 128.439297 32.901223 " stroke="#000000" stroke-width="0.3" stroke-opacity="1" stroke-miterlimit="10"/><path stroke-linecap="round" transform="matrix(0.571092, 0, 0, 0.571092, 0.122054, 16.483826)" fill-opacity="1" fill="#ffffff" fill-rule="nonzero" stroke-linejoin="round" d="M 126.920823 31.15703 L 123.781277 33.5989 " stroke="#000000" stroke-width="0.3" stroke-opacity="1" stroke-miterlimit="10"/><path fill="#ffffff" d="M 39.75 33.570312 C 39.75 33.570312 35.402344 34.988281 32.183594 37.699219 C 32.183594 37.699219 33.195312 49.75 32.617188 53.730469 C 32.039062 57.710938 34.882812 58.144531 41.09375 58.363281 C 47.304688 58.578125 49.691406 57.636719 50.050781 56.117188 C 50.414062 54.597656 49.042969 45.625 49.617188 43.308594 C 49.617188 43.308594 54.433594 47.6875 57.128906 47.324219 C 59.824219 46.964844 63.554688 43.632812 63.554688 43.632812 L 61.472656 39.417969 C 61.472656 39.417969 57.367188 40.957031 56.609375 41.0625 C 55.847656 41.171875 50.082031 34.25 42.472656 33.53125 " fill-opacity="1" fill-rule="nonzero"/><g clip-path="url(#0d48276dfd)"><path stroke-linecap="butt" transform="matrix(0.571092, 0, 0, 0.571092, 0.122054, 16.483826)" fill="none" stroke-linejoin="miter" d="M 69.389826 29.918995 C 69.389826 29.918995 61.776938 32.401905 56.140802 37.148845 C 56.140802 37.148845 57.912355 58.250156 56.900039 65.220086 C 55.887723 72.190017 60.867222 72.949254 71.742776 73.332292 C 82.61833 73.70849 86.797553 72.060057 87.42683 69.399309 C 88.062947 66.73856 85.662118 51.027146 86.667593 46.971043 C 86.667593 46.971043 95.101278 54.638651 99.820858 54.002534 C 104.540438 53.373256 111.07261 47.538761 111.07261 47.538761 L 107.426906 40.158432 C 107.426906 40.158432 100.238096 42.853381 98.911142 43.03806 C 97.577347 43.229579 87.48155 31.10915 74.157286 29.850596 " stroke="#000000" stroke-width="0.3" stroke-opacity="1" stroke-miterlimit="10"/></g><path stroke-linecap="butt" transform="matrix(0.571092, 0, 0, 0.571092, 0.122054, 16.483826)" fill-opacity="1" fill="#ffffff" fill-rule="nonzero" stroke-linejoin="miter" d="M 79.328304 21.909389 C 78.439108 24.631698 76.859075 26.909408 74.157286 27.750725 L 74.157286 29.850596 C 74.157286 29.850596 75.039642 32.778103 73.521169 34.987414 C 72.700372 36.198089 70.9083 36.177569 70.128543 34.953214 C 69.362466 33.763059 68.692149 31.991507 69.396666 29.932675 L 69.396666 27.798604 C 66.633318 27.012008 64.991725 24.693257 64.068329 21.923069 C 60.990342 22.470267 59.738627 19.207601 61.017702 18.092685 C 61.790618 17.408688 62.611415 17.490768 63.192812 17.702807 C 63.001293 16.027014 62.939733 14.358061 62.967093 12.887467 C 63.028653 9.95996 65.313203 7.62753 68.090232 7.62753 L 75.326921 7.62753 C 78.097109 7.62753 80.3885 9.95312 80.44322 12.887467 C 80.470579 14.358061 80.42954 16.020174 80.23118 17.682287 C 80.798898 17.470248 81.612855 17.401848 82.372091 18.079005 C 83.651166 19.200761 82.392611 22.456587 79.328304 21.909389 Z M 79.328304 21.909389 " stroke="#000000" stroke-width="0.3" stroke-opacity="1" stroke-miterlimit="10"/><path stroke-linecap="round" transform="matrix(0.571092, 0, 0, 0.571092, 0.122054, 16.483826)" fill-opacity="1" fill="#000000" fill-rule="nonzero" stroke-linejoin="round" d="M 53.616853 65.719404 L 32.857541 65.719404 L 32.857541 63.250175 L 56.099762 63.250175 C 56.092922 64.618169 54.991687 65.719404 53.616853 65.719404 Z M 53.616853 65.719404 " stroke="#000000" stroke-width="0.3" stroke-opacity="1" stroke-miterlimit="10"/><path stroke-linecap="butt" transform="matrix(0.571092, 0, 0, 0.571092, 0.122054, 16.483826)" fill-opacity="1" fill="#000000" fill-rule="nonzero" stroke-linejoin="miter" d="M 41.701623 65.719404 L 8.117365 65.719404 L 0.196678 37.853362 L 33.780937 37.853362 Z M 41.701623 65.719404 " stroke="#000000" stroke-width="0.3" stroke-opacity="1" stroke-miterlimit="10"/><path stroke-linecap="round" transform="matrix(0.571092, 0, 0, 0.571092, 0.122054, 16.483826)" fill-opacity="1" fill="#ffffff" fill-rule="nonzero" stroke-linejoin="round" d="M 26.831526 68.571672 C 26.831526 68.571672 20.087314 67.880835 18.89032 64.611329 C 17.693325 61.341823 18.062683 58.708434 18.89032 58.708434 C 19.717956 58.708434 20.381433 60.459466 20.381433 60.459466 C 20.381433 60.459466 19.519597 58.250156 20.381433 57.969717 C 21.24327 57.682438 22.638624 59.782309 22.638624 59.782309 C 22.638624 59.782309 22.351345 58.400635 23.267901 58.202276 C 23.992938 58.038117 26.181729 62.846616 27.891722 65.226926 C 28.473119 66.040883 28.34316 67.162638 27.597603 67.839795 C 27.330844 68.079194 27.057245 68.339113 26.831526 68.571672 Z M 26.831526 68.571672 " stroke="#000000" stroke-width="0.3" stroke-opacity="1" stroke-miterlimit="10"/><g clip-path="url(#bccdd89066)"><path fill="#000000" d="M 36.082031 24.71875 C 36.082031 24.71875 36.832031 25.011719 38.515625 23.183594 C 38.515625 23.183594 37.859375 24.277344 38.515625 24.449219 C 39.171875 24.621094 42.199219 23.496094 43.175781 22.429688 C 43.175781 22.429688 42.25 24.234375 43.175781 24.308594 C 44.101562 24.382812 46.003906 23.75 47.152344 22.332031 C 48.300781 20.914062 47.90625 16.769531 44.296875 18.261719 C 44.296875 18.261719 45.050781 16.941406 44.246094 16.671875 C 43.4375 16.402344 39.679688 16.574219 38.046875 18.28125 C 38.046875 18.28125 38.925781 17.015625 38.367188 16.867188 C 37.808594 16.71875 35.414062 17.964844 35.148438 19.625 C 35.148438 19.625 33.097656 21.601562 33.953125 24.039062 C 34.804688 26.476562 35.042969 26.625 35.042969 26.625 C 35.042969 26.625 35.609375 26.328125 36.210938 26.597656 Z M 36.082031 24.71875 " fill-opacity="1" fill-rule="nonzero"/></g><g clip-path="url(#1571a134ee)"><path stroke-linecap="butt" transform="matrix(0.571092, 0, 0, 0.571092, 0.122054, 16.483826)" fill="none" stroke-linejoin="miter" d="M 62.967093 14.419621 C 62.967093 14.419621 64.280368 14.932619 67.228395 11.731512 C 67.228395 11.731512 66.07928 13.646704 67.228395 13.947663 C 68.377511 14.248622 73.678488 12.27871 75.388481 10.411398 C 75.388481 10.411398 73.767408 13.571464 75.388481 13.701424 C 77.009554 13.831383 80.34062 12.723308 82.351571 10.240399 C 84.362523 7.757489 83.671686 0.50028 77.351553 3.113149 C 77.351553 3.113149 78.671667 0.801238 77.262633 0.32928 C 75.846759 -0.142678 69.266707 0.158281 66.407599 3.147348 C 66.407599 3.147348 67.946592 0.931198 66.968476 0.671279 C 65.990361 0.41136 61.797458 2.593311 61.33234 5.500299 C 61.33234 5.500299 57.741355 8.961324 59.239309 13.229466 C 60.730423 17.497608 61.147661 17.757527 61.147661 17.757527 C 61.147661 17.757527 62.139457 17.237689 63.192812 17.709647 Z M 62.967093 14.419621 " stroke="#000000" stroke-width="0.3" stroke-opacity="1" stroke-miterlimit="10"/></g><path stroke-linecap="butt" transform="matrix(0.571092, 0, 0, 0.571092, 0.122054, 16.483826)" fill-opacity="1" fill="#000000" fill-rule="nonzero" stroke-linejoin="miter" d="M 80.3885 12.25819 C 80.3885 12.25819 80.573179 16.546852 80.2175 17.682287 C 80.2175 17.682287 81.209296 17.10773 82.358411 18.079005 C 82.358411 18.079005 83.370727 11.902512 81.859094 9.617961 " stroke="#000000" stroke-width="0.3" stroke-opacity="1" stroke-miterlimit="10"/><path stroke-linecap="butt" transform="matrix(0.571092, 0, 0, 0.571092, 0.122054, 16.483826)" fill-opacity="1" fill="#000000" fill-rule="nonzero" stroke-linejoin="miter" d="M 106.257271 39.871153 C 106.257271 39.871153 110.949491 48.872555 111.07261 48.872555 C 111.20257 48.872555 114.239517 47.538761 114.362636 47.032603 C 114.478916 46.519605 110.121854 38.4074 109.608856 38.35268 C 109.109538 38.29112 106.257271 39.871153 106.257271 39.871153 Z M 106.257271 39.871153 " stroke="#000000" stroke-width="0.3" stroke-opacity="1" stroke-miterlimit="10"/><path stroke-linecap="round" transform="matrix(0.571092, 0, 0, 0.571092, 0.122054, 16.483826)" fill="none" stroke-linejoin="round" d="M 65.730442 16.300613 C 65.730442 16.300613 66.558078 15.117298 68.917868 15.801295 " stroke="#000000" stroke-width="0.3" stroke-opacity="1" stroke-miterlimit="10"/><path fill="#000000" d="M 38.960938 26.746094 C 38.960938 26.933594 38.808594 27.09375 38.613281 27.09375 C 38.417969 27.09375 38.265625 26.941406 38.265625 26.746094 C 38.265625 26.550781 38.417969 26.398438 38.613281 26.398438 C 38.808594 26.398438 38.960938 26.550781 38.960938 26.746094 Z M 38.960938 26.746094 " fill-opacity="1" fill-rule="nonzero"/><path stroke-linecap="round" transform="matrix(0.571092, 0, 0, 0.571092, 0.122054, 16.483826)" fill="none" stroke-linejoin="round" d="M 77.419952 16.211693 C 77.419952 16.211693 76.489716 14.877899 73.849487 15.650816 " stroke="#000000" stroke-width="0.336" stroke-opacity="1" stroke-miterlimit="10"/><path fill="#000000" d="M 42.875 26.808594 C 42.875 27.027344 43.046875 27.199219 43.261719 27.199219 C 43.480469 27.199219 43.652344 27.027344 43.652344 26.808594 C 43.652344 26.59375 43.480469 26.421875 43.261719 26.421875 C 43.046875 26.421875 42.875 26.59375 42.875 26.808594 Z M 42.875 26.808594 " fill-opacity="1" fill-rule="nonzero"/><path stroke-linecap="round" transform="matrix(0.571092, 0, 0, 0.571092, 0.122054, 16.483826)" fill="none" stroke-linejoin="round" d="M 71.701736 17.723327 L 71.209259 19.693239 " stroke="#000000" stroke-width="0.3" stroke-opacity="1" stroke-miterlimit="10"/><path stroke-linecap="round" transform="matrix(0.571092, 0, 0, 0.571092, 0.122054, 16.483826)" fill="none" stroke-linejoin="round" d="M 71.571777 19.912118 C 71.571777 19.912118 70.607341 19.26916 70.190103 19.611159 C 69.759185 19.953158 70.716781 20.869714 70.716781 20.869714 " stroke="#000000" stroke-width="0.3" stroke-opacity="1" stroke-miterlimit="10"/><path stroke-linecap="butt" transform="matrix(0.571092, 0, 0, 0.571092, 0.122054, 16.483826)" fill-opacity="1" fill="#ffffff" fill-rule="nonzero" stroke-linejoin="miter" d="M 69.937024 22.607066 C 69.937024 22.607066 72.228414 22.607066 73.616928 22.607066 C 73.616928 22.607066 73.28177 24.672738 71.797496 24.672738 C 70.381622 24.672738 69.937024 22.607066 69.937024 22.607066 Z M 69.937024 22.607066 " stroke="#000000" stroke-width="0.3" stroke-opacity="1" stroke-miterlimit="10"/></svg>