<svg xmlns="http://www.w3.org/2000/svg" xmlns:xlink="http://www.w3.org/1999/xlink" width="100" zoomAndPan="magnify" viewBox="0 0 75 74.999997" height="100" preserveAspectRatio="xMidYMid meet" version="1.0"><defs><g/><clipPath id="a4a2549327"><rect x="0" width="74" y="0" height="63"/></clipPath></defs><g transform="matrix(1, 0, 0, 1, 1, 8)"><g clip-path="url(#a4a2549327)"><g fill="#da6319" fill-opacity="1"><g transform="translate(0.946379, 42.332144)"><g><path d="M 13.421875 -0.640625 C 12.265625 -0.210938 11.035156 0 9.734375 0 C 8.429688 0 7.226562 -0.238281 6.125 -0.71875 C 4.757812 -1.34375 3.785156 -2.203125 3.203125 -3.296875 C 2.628906 -4.398438 2.140625 -5.625 1.734375 -6.96875 C 1.273438 -8.5 0.941406 -10.101562 0.734375 -11.78125 C 0.535156 -13.46875 0.570312 -15.085938 0.84375 -16.640625 C 1.113281 -18.203125 1.71875 -19.601562 2.65625 -20.84375 C 3.601562 -22.082031 4.972656 -23.019531 6.765625 -23.65625 C 8.648438 -24.332031 10.457031 -24.519531 12.1875 -24.21875 C 13.925781 -23.925781 15.410156 -23.179688 16.640625 -21.984375 C 17.878906 -20.796875 18.6875 -19.191406 19.0625 -17.171875 C 19.3125 -15.804688 19.441406 -14.296875 19.453125 -12.640625 C 19.460938 -10.984375 19.28125 -9.347656 18.90625 -7.734375 C 18.53125 -6.128906 17.898438 -4.6875 17.015625 -3.40625 C 16.128906 -2.125 14.929688 -1.203125 13.421875 -0.640625 Z M 8.46875 -6.09375 C 9.25 -5.3125 9.96875 -4.941406 10.625 -4.984375 C 11.28125 -5.023438 11.847656 -5.332031 12.328125 -5.90625 C 12.816406 -6.476562 13.171875 -7.15625 13.390625 -7.9375 C 13.515625 -8.445312 13.640625 -9.128906 13.765625 -9.984375 C 13.890625 -10.847656 13.953125 -11.742188 13.953125 -12.671875 C 13.953125 -13.597656 13.828125 -14.441406 13.578125 -15.203125 C 13.335938 -15.972656 12.9375 -16.519531 12.375 -16.84375 C 11.8125 -17.164062 11.191406 -17.195312 10.515625 -16.9375 C 9.847656 -16.6875 9.242188 -16.304688 8.703125 -15.796875 C 8.171875 -15.285156 7.820312 -14.789062 7.65625 -14.3125 C 7.5 -13.800781 7.378906 -13.160156 7.296875 -12.390625 C 7.210938 -11.628906 7.191406 -10.835938 7.234375 -10.015625 C 7.273438 -9.191406 7.390625 -8.429688 7.578125 -7.734375 C 7.765625 -7.035156 8.0625 -6.488281 8.46875 -6.09375 Z M 8.46875 -6.09375 "/></g></g></g><g fill="#da6319" fill-opacity="1"><g transform="translate(19.808872, 42.332144)"><g><path d="M 2.25 -1.40625 C 1.632812 -2.488281 1.195312 -3.691406 0.9375 -5.015625 C 0.6875 -6.347656 0.570312 -7.722656 0.59375 -9.140625 C 0.625 -10.566406 0.726562 -11.96875 0.90625 -13.34375 C 1.082031 -14.71875 1.289062 -15.992188 1.53125 -17.171875 C 1.613281 -17.597656 1.726562 -18.097656 1.875 -18.671875 C 2.019531 -19.253906 2.226562 -19.800781 2.5 -20.3125 C 2.769531 -20.820312 3.132812 -21.171875 3.59375 -21.359375 C 4.15625 -21.609375 4.648438 -21.609375 5.078125 -21.359375 C 5.503906 -21.117188 5.863281 -20.742188 6.15625 -20.234375 C 6.457031 -19.722656 6.695312 -19.191406 6.875 -18.640625 C 7.050781 -18.085938 7.175781 -17.613281 7.25 -17.21875 C 7.6875 -17.9375 8.195312 -18.613281 8.78125 -19.25 C 9.375 -19.882812 10.050781 -20.363281 10.8125 -20.6875 C 11.582031 -21.007812 12.410156 -21.0625 13.296875 -20.84375 C 14.078125 -20.65625 14.789062 -20.265625 15.4375 -19.671875 C 16.082031 -19.078125 16.617188 -18.394531 17.046875 -17.625 C 17.484375 -16.863281 17.738281 -16.09375 17.8125 -15.3125 C 17.875 -14.695312 17.757812 -14.132812 17.46875 -13.625 C 17.1875 -13.113281 16.710938 -12.832031 16.046875 -12.78125 C 15.429688 -12.75 14.945312 -12.925781 14.59375 -13.3125 C 14.238281 -13.707031 13.835938 -14.066406 13.390625 -14.390625 C 12.679688 -14.929688 12.03125 -15.132812 11.4375 -15 C 10.851562 -14.863281 10.328125 -14.546875 9.859375 -14.046875 C 9.390625 -13.546875 8.96875 -12.972656 8.59375 -12.328125 C 8.1875 -11.660156 7.828125 -10.960938 7.515625 -10.234375 C 7.210938 -9.515625 6.992188 -8.765625 6.859375 -7.984375 C 6.691406 -7.117188 6.582031 -6.25 6.53125 -5.375 C 6.476562 -4.507812 6.382812 -3.644531 6.25 -2.78125 C 6.113281 -1.976562 5.828125 -1.300781 5.390625 -0.75 C 4.960938 -0.195312 4.46875 0.0546875 3.90625 0.015625 C 3.34375 -0.0234375 2.789062 -0.5 2.25 -1.40625 Z M 2.25 -1.40625 "/></g></g></g><g fill="#da6319" fill-opacity="1"><g transform="translate(36.81735, 42.332144)"><g><path d="M 5.046875 0 C 3.640625 0.03125 2.65625 -0.300781 2.09375 -1 C 1.53125 -1.707031 1.15625 -2.691406 0.96875 -3.953125 C 0.726562 -5.535156 0.613281 -7.117188 0.625 -8.703125 C 0.632812 -10.296875 0.664062 -11.867188 0.71875 -13.421875 C 0.78125 -14.847656 0.800781 -16.28125 0.78125 -17.71875 C 0.769531 -19.15625 0.859375 -20.570312 1.046875 -21.96875 C 1.097656 -22.53125 1.21875 -23.164062 1.40625 -23.875 C 1.59375 -24.59375 1.984375 -25.070312 2.578125 -25.3125 C 3.117188 -25.53125 3.625 -25.484375 4.09375 -25.171875 C 4.5625 -24.867188 4.914062 -24.488281 5.15625 -24.03125 C 5.457031 -23.488281 5.609375 -22.898438 5.609375 -22.265625 C 5.609375 -21.640625 5.617188 -21.03125 5.640625 -20.4375 C 5.671875 -19.582031 5.695312 -18.722656 5.71875 -17.859375 C 5.75 -16.992188 5.722656 -16.132812 5.640625 -15.28125 C 6.265625 -15.976562 7.019531 -16.523438 7.90625 -16.921875 C 8.789062 -17.328125 9.703125 -17.316406 10.640625 -16.890625 C 11.609375 -16.460938 12.320312 -15.84375 12.78125 -15.03125 C 13.238281 -14.226562 13.5 -13.328125 13.5625 -12.328125 C 13.632812 -11.335938 13.554688 -10.316406 13.328125 -9.265625 C 13.097656 -8.222656 12.785156 -7.226562 12.390625 -6.28125 C 12.003906 -5.34375 11.582031 -4.550781 11.125 -3.90625 C 10.457031 -2.914062 9.59375 -2.023438 8.53125 -1.234375 C 7.46875 -0.441406 6.304688 -0.03125 5.046875 0 Z M 4.953125 -5.359375 C 5.597656 -5.410156 6.175781 -5.675781 6.6875 -6.15625 C 7.195312 -6.644531 7.632812 -7.210938 8 -7.859375 C 8.363281 -8.503906 8.625 -9.082031 8.78125 -9.59375 C 8.914062 -9.96875 9 -10.367188 9.03125 -10.796875 C 9.0625 -11.234375 8.988281 -11.570312 8.8125 -11.8125 C 8.632812 -12.050781 8.289062 -12.078125 7.78125 -11.890625 C 7.164062 -11.648438 6.6875 -11.273438 6.34375 -10.765625 C 6.007812 -10.253906 5.757812 -9.675781 5.59375 -9.03125 C 5.4375 -8.382812 5.316406 -7.734375 5.234375 -7.078125 C 5.160156 -6.421875 5.066406 -5.847656 4.953125 -5.359375 Z M 4.953125 -5.359375 "/></g></g></g><g fill="#da6319" fill-opacity="1"><g transform="translate(49.795357, 42.332144)"><g><path d="M 1.015625 -19.15625 C 0.691406 -19.738281 0.585938 -20.3125 0.703125 -20.875 C 0.828125 -21.445312 1.078125 -21.90625 1.453125 -22.25 C 1.828125 -22.601562 2.257812 -22.75 2.75 -22.6875 C 3.25 -22.632812 3.71875 -22.285156 4.15625 -21.640625 C 4.613281 -21.003906 4.78125 -20.390625 4.65625 -19.796875 C 4.53125 -19.203125 4.253906 -18.726562 3.828125 -18.375 C 3.398438 -18.03125 2.914062 -17.894531 2.375 -17.96875 C 1.84375 -18.050781 1.390625 -18.445312 1.015625 -19.15625 Z M 3.953125 -0.4375 C 3.335938 -0.0078125 2.828125 0.125 2.421875 -0.03125 C 2.015625 -0.195312 1.695312 -0.535156 1.46875 -1.046875 C 1.238281 -1.554688 1.0625 -2.132812 0.9375 -2.78125 C 0.820312 -3.425781 0.75 -4.035156 0.71875 -4.609375 C 0.695312 -5.191406 0.671875 -5.617188 0.640625 -5.890625 C 0.617188 -6.796875 0.625 -7.710938 0.65625 -8.640625 C 0.695312 -9.566406 0.75 -10.488281 0.8125 -11.40625 C 0.832031 -11.894531 0.84375 -12.441406 0.84375 -13.046875 C 0.84375 -13.648438 0.898438 -14.222656 1.015625 -14.765625 C 1.140625 -15.316406 1.394531 -15.769531 1.78125 -16.125 C 2.394531 -16.738281 2.914062 -17.007812 3.34375 -16.9375 C 3.769531 -16.875 4.117188 -16.601562 4.390625 -16.125 C 4.660156 -15.644531 4.867188 -15.070312 5.015625 -14.40625 C 5.160156 -13.75 5.265625 -13.101562 5.328125 -12.46875 C 5.398438 -11.84375 5.453125 -11.367188 5.484375 -11.046875 C 5.617188 -9.941406 5.644531 -8.84375 5.5625 -7.75 C 5.476562 -6.664062 5.359375 -5.570312 5.203125 -4.46875 C 5.148438 -4.09375 5.09375 -3.632812 5.03125 -3.09375 C 4.976562 -2.5625 4.878906 -2.050781 4.734375 -1.5625 C 4.585938 -1.082031 4.328125 -0.707031 3.953125 -0.4375 Z M 3.953125 -0.4375 "/></g></g></g><g fill="#da6319" fill-opacity="1"><g transform="translate(54.793031, 42.332144)"><g><path d="M 2.34375 2.375 C 1.644531 2.050781 1.234375 1.566406 1.109375 0.921875 C 0.984375 0.273438 1.039062 -0.453125 1.28125 -1.265625 C 1.53125 -2.085938 1.867188 -2.90625 2.296875 -3.71875 C 2.722656 -4.539062 3.148438 -5.285156 3.578125 -5.953125 C 4.015625 -6.628906 4.351562 -7.144531 4.59375 -7.5 C 4.695312 -7.65625 4.894531 -7.90625 5.1875 -8.25 C 5.488281 -8.601562 5.765625 -8.957031 6.015625 -9.3125 C 6.273438 -9.664062 6.394531 -9.921875 6.375 -10.078125 C 6.375 -10.265625 6.203125 -10.53125 5.859375 -10.875 C 5.523438 -11.226562 5.171875 -11.570312 4.796875 -11.90625 C 4.421875 -12.25 4.148438 -12.5 3.984375 -12.65625 C 3.691406 -13.03125 3.320312 -13.476562 2.875 -14 C 2.4375 -14.53125 2.101562 -15.097656 1.875 -15.703125 C 1.644531 -16.304688 1.675781 -16.878906 1.96875 -17.421875 C 2.351562 -18.054688 2.789062 -18.351562 3.28125 -18.3125 C 3.78125 -18.28125 4.296875 -18.039062 4.828125 -17.59375 C 5.367188 -17.15625 5.890625 -16.625 6.390625 -16 C 6.890625 -15.382812 7.316406 -14.796875 7.671875 -14.234375 C 8.035156 -13.671875 8.300781 -13.253906 8.46875 -12.984375 C 8.351562 -13.171875 8.429688 -13.460938 8.703125 -13.859375 C 8.972656 -14.265625 9.34375 -14.707031 9.8125 -15.1875 C 10.28125 -15.675781 10.785156 -16.148438 11.328125 -16.609375 C 11.867188 -17.066406 12.359375 -17.457031 12.796875 -17.78125 C 13.242188 -18.101562 13.5625 -18.289062 13.75 -18.34375 C 14.601562 -18.613281 15.3125 -18.554688 15.875 -18.171875 C 16.445312 -17.796875 16.816406 -17.257812 16.984375 -16.5625 C 17.160156 -15.863281 17.085938 -15.140625 16.765625 -14.390625 C 16.253906 -13.234375 15.578125 -12.101562 14.734375 -11 C 13.890625 -9.90625 13.101562 -8.847656 12.375 -7.828125 C 12.644531 -7.472656 13.035156 -6.984375 13.546875 -6.359375 C 14.054688 -5.742188 14.570312 -5.070312 15.09375 -4.34375 C 15.625 -3.625 16.03125 -2.921875 16.3125 -2.234375 C 16.59375 -1.546875 16.648438 -0.945312 16.484375 -0.4375 C 16.296875 0.175781 15.976562 0.441406 15.53125 0.359375 C 15.09375 0.273438 14.609375 -0.0078125 14.078125 -0.5 C 13.554688 -1 13.035156 -1.570312 12.515625 -2.21875 C 11.992188 -2.863281 11.546875 -3.453125 11.171875 -3.984375 C 10.796875 -4.523438 10.550781 -4.878906 10.4375 -5.046875 C 10.144531 -4.640625 9.789062 -4.078125 9.375 -3.359375 C 8.957031 -2.648438 8.476562 -1.90625 7.9375 -1.125 C 7.40625 -0.34375 6.835938 0.363281 6.234375 1 C 5.628906 1.644531 4.992188 2.109375 4.328125 2.390625 C 3.671875 2.679688 3.007812 2.675781 2.34375 2.375 Z M 2.34375 2.375 "/></g></g></g></g></g></svg>